# xmcd
#
# Track frame offsets: 
#        150
#        13832
#        30332
#        51477
#        73805
#        86535
#        102452
#        116500
#        129255
#        144647
#        160167
#        169990
#        185737
#
# Disc length: 2696 seconds
#
# Revision: 7
# Processed by: cddbd v1.5.1PL2 Copyright (c) Steve Scherf et al.
# Submitted via: ExactAudioCopy v0.95b2
#
DISCID=b70a860d
DTITLE=MacRÀHL - Retrouvailles
DYEAR=1900
DGENRE=Folk
TTITLE0=Jig de la fille de vent
TTITLE1=La chasse aux mouches
TTITLE2=The king of the fairies
TTITLE3=Morrison jig - The morning dew
TTITLE4=Sous le chêne
TTITLE5=Kilt thy coat Maggie - Thee sheepskins
TTITLE6=Retrouvailles
TTITLE7=Dep'art
TTITLE8=Treûs bès marins
TTITLE9=Les prisons d'ailleurs
TTITLE10=Le parlement
TTITLE11=Old hag you've killed me - The cliffs of Moher
TTITLE12=Carte Blanche
EXTD=
EXTT0=
EXTT1=
EXTT2=
EXTT3=
EXTT4=
EXTT5=
EXTT6=
EXTT7=
EXTT8=
EXTT9=
EXTT10=
EXTT11=
EXTT12=
PLAYORDER=
